<svg width="42" height="57" viewBox="0 0 42 57" fill="none" xmlns="http://www.w3.org/2000/svg">
<rect width="42" height="57" fill="#1E1E1E"/>
<g id="Landing" clip-path="url(#clip0_0_1)">
<rect width="1728" height="5407" transform="translate(-1272 -1322)" fill="white"/>
<g id="Frame 38">
<rect width="1728" height="345" transform="translate(-1272 -205)" fill="#75BA77"/>
<g id="Partners_logos">
<g id="Logo - #18">
<g id="Group 39861">
<g id="Group 39860">
<path id="Rectangle 4535" d="M0 17.1894C0 16.486 0.373312 15.8354 0.980614 15.4805L24.4903 1.74052C25.8098 0.96933 27.4684 1.92105 27.4684 3.44944V24.154L13.88 16.0536V56.2583H1.97937C0.886194 56.2583 0 55.3721 0 54.2789V17.1894Z" fill="#F2F2F2"/>
<path id="Rectangle 4536" d="M27.4688 24.1792L40.2824 32.0413C40.869 32.4013 41.2266 33.0401 41.2266 33.7284V54.279C41.2266 55.3722 40.3404 56.2584 39.2472 56.2584H29.4481C28.3549 56.2584 27.4688 55.3722 27.4688 54.279V24.1792Z" fill="#F2F2F2"/>
</g>
</g>
</g>
</g>
</g>
</g>
<defs>
<clipPath id="clip0_0_1">
<rect width="1728" height="5407" fill="white" transform="translate(-1272 -1322)"/>
</clipPath>
</defs>
</svg>
